<svg width="120" height="121" viewBox="0 0 120 121" fill="none" xmlns="http://www.w3.org/2000/svg">
<path d="M39.648 10.4674C36.7896 11.389 34.1628 12.3346 33.7704 12.5194C32.226 13.3486 31.0044 15.1474 30.5664 17.2438C30.336 18.3502 30.174 18.5578 28.0536 20.401C26.256 21.991 25.6332 22.3834 25.0572 22.3834C22.6368 22.429 20.0556 24.481 19.3872 26.9014C19.0188 28.1926 18.4188 38.3338 18.6492 39.1402C19.2024 41.0302 20.9772 43.1734 22.2912 43.4962C22.8216 43.6342 22.8216 43.7038 22.8216 46.8154V49.9954L19.0872 50.0878C15.4692 50.1574 15.2844 50.1802 14.2704 50.779C13.026 51.517 12.0804 52.5538 11.5044 53.8438C11.1132 54.673 11.0664 55.5034 11.0664 62.4874V70.2082L9.084 72.0286C6.7104 74.2186 5.2116 76.1542 3.852 78.805C1.1796 84.0154 0.511204 89.455 1.9176 94.9858C4.0608 103.422 10.9524 110.198 19.5036 112.319C22.4772 113.057 27.2016 113.033 30.06 112.296C39.2568 109.922 46.0092 102.8 47.9688 93.4882C48.1296 92.7274 48.2688 90.7462 48.2448 89.1094C48.222 86.6662 48.1068 85.6978 47.622 83.8318C46.47 79.429 43.8876 75.1426 40.5 72.0538C39.6012 71.2234 38.7708 70.5562 38.6796 70.5562C38.5872 70.5562 38.4948 67.0294 38.4948 62.743V54.9286L37.734 53.4766C36.9036 51.8626 35.5668 50.665 34.1616 50.2726C33.7008 50.1574 31.8336 50.0422 30.036 50.0422H26.7396V46.723V43.4266L27.6384 42.8038C28.6068 42.1354 29.5512 40.9138 29.9664 39.8074C30.1044 39.439 30.3816 36.6262 30.5892 33.5842C30.9804 27.6382 30.912 26.6926 29.9664 25.3786C29.7132 25.0102 29.5056 24.6406 29.5056 24.5026C29.5056 24.3874 30.1284 23.7646 30.8652 23.0962L32.2476 21.9202L33.1008 22.4962C34.1376 23.1874 35.2668 23.533 36.6504 23.533C38.0796 23.533 47.8284 20.2834 49.074 19.3846C49.6968 18.9238 50.226 18.2326 50.7564 17.149L51.5172 15.5818L52.4388 15.6514C52.9464 15.6742 53.7984 15.7666 54.3516 15.8362C55.2972 15.9514 55.32 15.9742 55.32 16.8502C55.32 17.3578 55.5048 18.2098 55.7124 18.7402C56.1504 19.8466 62.8344 27.7522 63.9864 28.5586C64.4016 28.8358 65.346 29.2042 66.084 29.365L67.4208 29.6878L67.7208 33.6754L68.0208 37.663L64.5864 41.143C60.9444 44.8534 60.6216 45.3838 60.6216 47.551C60.6216 48.1042 60.7824 49.141 60.99 49.8334C61.3356 50.9854 61.7508 51.4702 66.8448 56.6098L72.3072 62.1418L72.192 64.723C71.892 71.5222 74.3124 77.8606 78.9456 82.447C81.8724 85.351 85.3992 87.3562 89.6172 88.4626C91.5768 88.993 92.3136 89.0614 95.5404 89.0614C98.79 89.0614 99.5052 88.9918 101.533 88.4626C109.945 86.251 115.961 80.2126 118.289 71.707C118.75 70.0018 118.819 69.241 118.796 65.7142C118.796 62.3494 118.704 61.381 118.289 59.9062C117.022 55.273 115.454 52.5538 112.135 49.2346C108.816 45.9154 106.12 44.3482 101.464 43.081C100.034 42.6898 98.928 42.5734 95.6784 42.5278L91.668 42.4582L86.3436 37.1566C80.3976 31.2334 79.9596 30.9334 77.3784 30.9106C75.4188 30.9106 74.544 31.279 72.9756 32.755L71.7312 33.931L71.5932 32.7094C71.1552 28.4458 71.1552 28.4458 71.8704 27.4774C73.2768 25.5646 73.4376 22.6138 72.2856 20.701C71.1792 18.8806 64.9332 11.9422 63.8724 11.3434C62.0052 10.3066 58.6872 10.4902 57.3504 11.7118C56.9592 12.0574 56.6124 12.0574 53.8236 11.8498C50.7348 11.5966 50.7348 11.5966 49.9056 10.7902C48.8448 9.75337 47.3928 9.08497 45.9648 8.90017C44.9952 8.80777 44.1192 9.01536 39.648 10.4674ZM47.0004 13.141C47.646 13.7866 47.8536 15.1006 47.4156 15.769C46.9776 16.4374 36.4908 19.9642 35.592 19.7566C34.4856 19.4794 33.9552 17.1754 34.8084 16.4374C35.4072 15.9298 44.8344 12.7498 45.8256 12.727C46.2624 12.703 46.746 12.8878 47.0004 13.141ZM62.5116 15.169C62.9724 15.6526 64.7016 17.635 66.36 19.5946C68.8728 22.5682 69.3792 23.2822 69.3792 23.905C69.3792 25.3798 67.2816 26.3938 66.198 25.4266C65.5068 24.8278 59.3532 17.4982 59.0532 16.9222C58.6608 16.2082 58.7076 16.0462 59.4912 15.1246C60.4836 13.9942 61.3824 14.017 62.5116 15.169ZM26.418 26.8546L27.0636 27.385L26.6952 33.193C26.28 39.439 26.2344 39.6922 24.966 40.015C24.1128 40.2226 22.8228 39.715 22.5924 39.0694C22.4544 38.701 22.5 36.6958 22.7076 33.4918C22.8924 30.7486 23.0532 28.2598 23.0532 28.0066C23.0532 27.7306 23.2608 27.2458 23.5368 26.9002C24.1596 26.0938 25.5192 26.071 26.418 26.8546ZM82.7016 39.0478C85.122 41.491 87.1272 43.5418 87.1272 43.6114C87.1272 43.7038 86.5512 44.0026 85.86 44.2798C83.9472 45.0634 80.766 47.2762 78.9684 49.051C77.3088 50.7106 74.7276 54.0298 73.6668 55.8502C73.2984 56.473 72.9528 56.9566 72.8604 56.9566C72.768 56.9566 70.8096 55.0666 68.5044 52.7386C64.7016 48.889 64.3092 48.451 64.3092 47.7142C64.3092 47.0002 64.7928 46.447 70.4856 40.7998C73.8732 37.4122 76.8012 34.5994 76.9848 34.531C77.1696 34.4614 77.538 34.4614 77.7912 34.531C78.0456 34.5994 80.2596 36.6274 82.7016 39.0478ZM100.265 46.6078C103.584 47.461 106.418 49.0738 109.116 51.6322C111.928 54.3514 113.818 57.5326 114.809 61.2202C115.477 63.7558 115.477 67.8814 114.832 70.3474C111.997 81.019 101.256 87.5878 90.9768 84.9838C84.2928 83.2786 78.9684 78.3226 76.7328 71.7082C76.0872 69.7954 75.972 69.1498 75.8796 66.5218C75.7644 63.1102 76.2024 60.691 77.424 58.0174C78.8292 54.9286 81.3648 51.817 84.0384 49.9042C85.6056 48.775 89.2008 47.023 90.792 46.585C93.6504 45.8242 97.2 45.8242 100.265 46.6078ZM34.0932 54.559C34.554 55.1578 34.5768 55.4578 34.5768 61.4734C34.5768 64.9534 34.5312 67.789 34.4616 67.789C34.416 67.789 33.816 67.5814 33.1476 67.3282C31.0272 66.5446 28.3764 65.9458 26.1876 65.8066C23.952 65.6458 19.1808 66.1294 16.83 66.7522C16.1388 66.937 15.4236 67.0978 15.2856 67.0978C15.0552 67.0978 14.9856 65.7154 14.9856 60.9898C14.9856 55.1818 15.0084 54.859 15.4464 54.421C15.8844 53.983 16.2072 53.9602 24.7584 53.9602H33.6324L34.0932 54.559ZM31.2348 70.8778C34.1844 71.8918 35.2908 72.4678 37.3656 74.1514C43.128 78.7606 45.7092 86.9206 43.7736 94.5034C41.238 104.461 31.5348 110.522 21.0708 108.702C11.3436 106.994 4.5912 98.3746 5.1444 88.3018C5.3292 85.1674 5.79 83.4154 7.1496 80.581C9.0852 76.5934 11.9664 73.6666 15.7932 71.7994C19.0428 70.2322 20.8644 69.8638 25.128 69.9322C28.584 70.0018 28.7916 70.0246 31.2348 70.8778Z" fill="#DEC083"/>
<path d="M72.4692 41.8366C71.6856 42.1822 71.4552 42.5746 71.4552 43.681C71.4552 44.2798 71.778 44.7178 73.368 46.309C75.0276 47.9686 75.3732 48.199 76.0872 48.199C77.4012 48.199 78.3456 46.9078 77.8848 45.7102C77.6088 44.9722 75.0492 42.3226 74.1744 41.8378C73.4364 41.4442 73.368 41.4442 72.4692 41.8366Z" fill="#DEC083"/>
<path d="M91.6224 50.7334C86.9208 51.9778 83.7396 54.5134 81.7116 58.6846C80.3748 61.381 79.8672 63.8938 80.052 66.775C80.49 73.2058 84.2928 78.3454 90.1476 80.3962C95.0568 82.1014 100.266 81.433 104.552 78.5758C107.618 76.525 109.969 72.9754 110.776 69.1726C111.26 66.8674 111.098 63.2026 110.407 60.9898C108.816 55.8502 104.783 52.0702 99.4812 50.7334C97.1304 50.1334 93.858 50.1334 91.6224 50.7334ZM99.3432 54.5362C102.8 55.7578 105.866 58.9618 106.949 62.4418C107.594 64.5394 107.572 67.4206 106.879 69.403C105.15 74.2666 100.471 77.701 95.5392 77.701C89.2704 77.701 83.646 72.1006 83.6688 65.8546C83.6916 63.8038 83.9688 62.5126 84.8436 60.7606C86.6412 57.1186 90.3288 54.4222 94.1556 53.9842C95.7936 53.7982 97.914 54.0286 99.3432 54.5362Z" fill="#DEC083"/>
<path d="M23.3988 56.611C22.8456 57.1414 22.8228 57.3022 22.8228 59.8378C22.8228 62.5114 22.8228 62.5342 23.514 63.2266C24.1128 63.8026 24.3432 63.895 24.966 63.7798C25.3812 63.7102 25.9344 63.3874 26.2332 63.0418C26.694 62.5114 26.7408 62.2354 26.7408 60.0454C26.7408 57.5326 26.4408 56.473 25.704 56.173C24.8964 55.873 23.952 56.0338 23.3988 56.611Z" fill="#DEC083"/>
<path d="M23.1684 73.8046C16.6224 74.4046 10.7448 79.7974 9.36242 86.527C8.90162 88.717 8.90162 89.8462 9.33962 92.1514C10.2156 96.7846 13.6272 101.209 17.9832 103.376C22.524 105.612 26.718 105.657 31.236 103.514C39.1872 99.7114 42.5988 90.5614 38.9568 82.8862C37.4592 79.729 34.6932 76.9402 31.4424 75.3262C28.7916 73.9894 26.3028 73.5274 23.1684 73.8046ZM27.8004 77.953C30.198 78.4594 32.64 80.0734 34.2312 82.2166C37.32 86.3422 37.32 92.3578 34.254 96.553C30.1284 102.153 21.324 102.753 16.3452 97.7746C11.3664 92.7958 11.9664 83.9914 17.5668 79.8658C20.4024 77.7922 23.928 77.1238 27.8004 77.953Z" fill="#DEC083"/>
</svg>
