<svg width="43" height="43" viewBox="0 0 43 43" fill="none" xmlns="http://www.w3.org/2000/svg">
<g clip-path="url(#clip0_1_82)">
<path d="M37.452 26.5367C24.1868 18.0936 41.3089 2 41.3089 2C41.3089 2 25.0762 13.4948 24.9835 33.4622C24.9835 37.9683 28.638 41.6229 33.1441 41.6229C37.6543 41.6229 41.3089 37.9683 41.3089 33.4622C41.3089 30.5369 39.7662 27.9783 37.452 26.5367Z" fill="#DEC083" fill-opacity="0.3"/>
<path d="M16.3255 2C16.3255 2 0.0927354 13.4948 2.75052e-06 33.4622C3.14445e-06 37.9683 3.65458 41.6229 8.16063 41.6229C12.6667 41.6229 16.3213 37.9683 16.3213 33.4622C16.3213 30.5369 14.7785 27.9783 12.4686 26.5367C-0.796672 18.0936 16.3255 2 16.3255 2Z" fill="#DEC083" fill-opacity="0.3"/>
</g>
<defs>
<clipPath id="clip0_1_82">
<rect width="42.152" height="42.152" fill="white"/>
</clipPath>
</defs>
</svg>
