<svg width="189" height="132" viewBox="0 0 189 132" fill="none" xmlns="http://www.w3.org/2000/svg">
<path d="M27.29 60.2592C24.6587 61.0847 23.0048 63.0358 21.0501 64.4616C18.7948 66.0375 16.7649 67.9136 14.5096 69.4144C11.4272 71.4406 9.54774 70.2399 9.47256 66.5628C9.39738 64.6117 9.99881 62.8857 10.7506 61.1597C13.7578 54.631 17.5919 48.7027 22.1778 43.1495C24.1325 40.8232 26.0871 38.647 28.1921 36.4707C29.2446 35.4201 29.6957 34.2194 29.6957 32.7936C29.8461 28.4412 30.8986 24.1637 31.3496 19.8113C31.3496 19.6612 31.3496 19.5861 31.4248 19.436C31.5752 18.6856 31.7255 17.8601 32.778 18.0853C33.5298 18.2354 33.605 18.9858 33.5298 19.5861C33.2291 22.0625 32.8532 24.5389 32.4773 27.0153C32.1766 28.7413 32.0263 30.4673 32.2518 32.5685C35.259 30.2422 37.9654 28.141 40.747 26.0398C46.9117 21.5372 53.4523 17.56 60.7446 15.1586C61.5716 14.8584 62.3986 14.5583 63.2255 14.4082C63.7518 14.3331 64.278 14.6333 64.278 15.2337C64.278 15.5338 64.0525 15.9841 63.7518 16.1342C62.6241 16.6595 61.4212 17.1097 60.2936 17.56C50.0692 21.6123 41.0477 27.6907 33.0036 35.1199C31.9511 36.0955 31.4248 37.1461 31.1993 38.647C30.222 44.05 30.8234 49.5281 29.6205 55.3815C32.0263 54.2558 33.6802 53.3553 35.4093 52.755C39.2434 51.4792 43.0776 50.3536 47.1372 51.6293C49.0919 52.3047 49.7685 51.5543 50.1444 49.6782C51.4224 43.8249 53.2267 38.1217 55.3317 32.4935C56.2339 30.1671 57.2864 27.9159 58.7148 25.8147C59.2411 25.1393 59.7673 24.3889 60.3687 23.7885C62.4738 21.9875 64.5788 22.7379 65.0298 25.3644C65.2554 26.5651 65.1802 27.8408 65.1802 29.1165C65.105 34.9699 64.0525 40.8232 63.2255 46.6015C62.6241 50.7288 62.6241 54.8562 62.6993 58.9085C62.6993 60.3343 62.8496 61.7601 64.2029 62.5105C65.7816 63.336 67.1348 62.5105 68.3377 61.535C69.1647 60.9346 69.8413 60.2592 70.5931 59.5839C71.4201 58.7584 72.0967 57.9329 72.8485 57.1074C78.7876 50.5037 81.3437 50.1285 89.0119 54.556C91.6432 56.0568 94.3497 57.3326 97.0561 58.6083C98.7852 59.4338 100.59 59.9591 102.469 59.9591C105.476 60.0341 105.476 60.0341 105.777 56.8823C106.002 54.9312 106.604 52.9801 107.055 51.029C107.205 50.5787 107.431 50.0534 107.656 49.6782C108.333 48.5526 109.31 47.7271 110.739 48.1023C112.017 48.4025 112.317 49.6032 112.393 50.7288C112.693 53.5804 112.092 56.4321 110.137 58.4582C108.333 60.4093 109.16 61.685 110.288 63.2609C111.19 64.5367 112.317 65.4372 113.671 66.1876C116.227 67.7635 117.054 67.6885 119.61 65.8124C120.061 65.5122 120.437 65.2121 120.888 65.5122C121.339 65.8124 121.414 66.3377 121.264 66.863C120.963 68.4389 119.384 69.5645 117.279 69.5645C114.498 69.5645 111.866 68.5139 110.363 66.3377C107.957 62.9608 105.025 61.9852 100.965 61.8351C96.6802 61.685 92.9212 59.1336 89.2375 57.1074C87.7339 56.282 86.1551 55.4565 84.6516 54.556C82.0203 53.1302 79.6146 53.5054 77.4344 55.5315C76.457 56.4321 75.3294 57.3326 74.5024 58.4582C73.1492 60.2592 71.4201 61.685 69.6158 63.1109C67.8115 64.6117 65.8568 65.6623 63.4511 64.6117C61.1205 63.6362 60.6695 61.535 60.5191 59.3587C60.2184 55.9818 60.2936 52.6049 60.6695 49.228C61.4212 42.6242 62.3986 36.0955 63.3007 29.5668C63.5263 28.0659 63.5263 26.6401 63 25.2143C61.722 24.7641 61.3461 25.6646 60.8198 26.34C59.2411 28.4412 58.1885 30.9176 57.2864 33.3189C55.1814 39.1723 53.3771 45.0256 51.9487 50.9539C51.648 52.3047 51.7232 53.3553 52.926 54.2558C59.2411 58.9085 62.173 65.5873 63.9773 72.9414C66.0823 81.6464 66.759 90.4264 64.5036 99.2814C64.1277 100.632 63.6766 101.908 63 103.109C61.1957 106.26 58.7148 107.011 55.4069 105.435C53.1516 104.384 51.648 102.583 50.4451 100.482C47.7387 95.4542 46.6862 89.9011 46.3854 84.2729C45.8592 75.4178 46.5358 66.5628 48.4153 57.8579C49.0919 54.631 48.4153 53.7305 45.1826 53.3553C39.7697 52.6799 35.1838 55.0062 30.7482 57.7078C29.6957 58.3081 29.7709 59.3587 29.7709 60.4093C29.6957 68.8141 29.5454 77.1438 31.7255 85.3235C31.8759 85.7737 32.0263 86.299 32.0263 86.7493C32.1014 87.2746 31.8007 87.7248 31.2745 87.8749C30.673 88.025 30.2971 87.6498 30.1468 87.1995C29.3198 84.423 28.6432 81.6464 28.2673 78.7948C27.5155 73.1666 27.5155 67.6134 27.5155 61.9852C27.5155 61.3849 27.3652 60.9346 27.29 60.2592ZM51.3473 55.9068C51.1217 56.282 50.9714 56.4321 50.8962 56.6572C48.4905 66.5628 47.8139 76.6185 48.7912 86.7493C49.2423 91.7021 50.2948 96.6549 53.4523 100.857C54.8807 102.733 56.4594 104.459 59.0155 103.934C61.3461 103.484 61.7971 101.233 62.2482 99.2814C65.2554 87.1995 63.827 75.4929 58.5644 64.2365C56.9857 60.8596 54.6551 57.8579 51.3473 55.9068ZM28.8687 40.1478C24.2076 43.5998 20.8998 47.9522 17.8926 52.4548C15.2613 56.5071 12.7053 60.7095 11.5776 65.5122C11.4272 66.2626 11.1265 67.0131 11.7279 67.6134C12.6301 68.4389 13.3819 67.6134 13.9833 67.0881C18.043 64.0114 22.1026 60.9346 26.1623 57.7828C26.8389 57.2575 27.4403 56.5821 27.5155 55.6066C27.9666 50.5037 28.4177 45.3257 28.8687 40.1478ZM108.258 57.4076C110.062 55.3815 110.964 53.5804 110.288 50.4286C108.784 52.83 107.807 54.631 108.258 57.4076Z" fill="#B39B6C"/>
<path d="M151.035 73.6169C154.342 78.7198 156.899 83.9727 162.311 87.0495C162.988 87.4247 163.815 87.875 163.289 88.7755C162.838 89.6009 161.936 89.2257 161.259 88.9256C159.154 87.7999 157.199 86.4491 155.771 84.498C153.741 81.7965 151.486 79.2451 150.057 76.1683C149.005 73.9921 147.576 73.7669 145.547 74.1422C138.63 75.4179 131.789 76.8437 125.098 78.7198C110.212 82.8471 95.8532 88.2502 82.5466 96.2797C76.8329 99.7317 71.6456 103.784 67.4356 109.037C65.7065 111.213 64.2029 113.464 63.3007 116.091C63 116.991 62.9248 118.868 61.3461 118.117C59.9177 117.517 61.0454 116.091 61.4212 115.115C63.2255 110.163 66.4582 106.185 70.2172 102.733C74.5024 98.7561 79.389 95.4543 84.5764 92.5276C99.3115 84.1979 115.099 78.8698 131.488 74.8926C136.6 73.6919 141.712 72.6413 147.125 71.4406C145.847 68.514 144.569 65.8124 143.442 63.1109C142.765 61.535 142.088 59.8841 141.487 58.2331C141.186 57.3326 140.51 56.0569 141.788 55.6817C143.066 55.3064 143.141 56.8073 143.517 57.7078C144.72 60.4844 145.847 63.261 147.125 65.9625C149.982 71.7408 148.704 71.4406 155.771 70.6151C162.086 69.8647 168.551 70.0148 174.866 70.5401C177.122 70.6902 179.227 71.5157 181.257 72.5663C181.933 72.9415 182.61 73.4668 182.159 74.3673C181.783 75.0427 181.106 74.7425 180.505 74.5174C173.663 71.7408 166.597 71.6657 159.455 72.4912C156.823 72.7163 153.967 72.2661 151.035 73.6169Z" fill="#B39B6C"/>
<path d="M92.6205 30.0921C91.7184 29.6419 90.4403 29.4167 89.6134 28.5913C88.7864 27.8408 89.5382 27.0154 90.29 26.4901C91.1169 25.9648 92.0191 26.34 92.6205 26.8653C93.3723 27.5407 93.8986 28.3661 93.5979 29.4918C93.5227 29.867 93.2971 30.2422 92.6205 30.0921Z" fill="#B39B6C"/>
</svg>
