<svg width="120" height="120" viewBox="0 0 120 120" fill="none" xmlns="http://www.w3.org/2000/svg">
<path d="M58.4568 14.1996C53.826 14.784 49.8492 18.246 48.7272 22.6896L48.4704 23.766H39.2784H30.0864L29.8056 23.064C29.4552 22.1988 27.9108 20.7948 26.8584 20.3508C25.8528 19.9296 23.4672 19.9296 22.4616 20.3508C21.3624 20.7948 20.0292 22.0584 19.4448 23.1576C18.6732 24.6312 18.72 27.0408 19.5612 28.4676C20.1696 29.4972 21.2688 30.6192 21.8532 30.8304C21.9936 30.8772 18.2976 40.2324 13.3164 52.4184C8.47441 64.2528 3.77401 75.7608 2.86201 78.006L1.20001 82.074L1.34041 84.4368C1.92481 94.6344 9.69001 103.336 20.1216 105.51C22.4136 105.978 26.7168 106.001 29.1024 105.534C39.4872 103.523 47.112 95.0556 48.024 84.5076L48.2112 82.356L40.4928 63.4104C36.2592 52.9788 31.5576 41.472 30.0612 37.8L27.3252 31.134L28.542 29.964C29.1972 29.3088 29.8044 28.5372 29.898 28.2564L30.0612 27.7416H39.276H48.468L48.6312 28.4904C48.912 29.8932 50.3856 32.5596 51.5076 33.6828C53.8932 36.1392 56.0688 37.1208 59.5068 37.2612C62.22 37.4016 63.8808 37.0044 66.0324 35.7408C68.3712 34.3836 70.8744 30.9696 71.3412 28.5372L71.4816 27.7416H80.6508H89.796L90.264 28.584C90.6852 29.4024 91.9248 30.642 92.4864 30.8292C92.6736 30.876 90.7788 35.7648 87.0372 44.9328C83.88 52.6512 79.1784 64.182 76.5816 70.5432L71.8332 82.1208L71.9736 84.2256C72.2076 88.2252 73.8444 92.856 76.2072 96.1308C77.4 97.7916 80.4168 100.762 82.0308 101.861C86.4516 104.855 91.854 106.258 97.4448 105.814C104.298 105.299 110.777 101.51 114.752 95.7096C117.022 92.412 118.634 87.6408 118.752 83.898L118.799 81.8868L108.532 56.8608C102.895 43.0848 98.2176 31.6476 98.1468 31.4136C98.0772 31.1328 98.3568 30.7356 99.036 30.15C101.609 27.9516 101.843 24.396 99.5736 21.894C98.2404 20.4204 97.0248 19.9296 94.8492 20.07C92.8848 20.1636 91.5984 20.9352 90.4992 22.6428L89.7972 23.742H80.652L71.4828 23.766L71.3424 22.9944C71.1324 21.8244 69.9624 19.5792 68.91 18.246C66.5952 15.3216 62.3856 13.6848 58.4568 14.1996ZM63.2748 18.5724C65.0052 19.4148 66.198 20.6076 67.0404 22.3152C67.7184 23.6724 67.812 24.0924 67.812 25.7532C67.812 27.2964 67.6956 27.858 67.2036 28.9344C66.432 30.5484 65.0748 31.9512 63.438 32.8164C62.3628 33.378 61.9416 33.4716 60.0936 33.4716C58.3164 33.4716 57.8016 33.378 56.7024 32.8632C55.0656 32.0916 53.6148 30.6408 52.8204 28.9572C51.978 27.18 51.9084 24.4428 52.6572 22.782C53.6628 20.5368 55.23 19.086 57.4056 18.2916C58.9476 17.754 61.8708 17.8716 63.2748 18.5724ZM25.9692 24.3264C27.3252 25.4724 26.4372 27.7416 24.6588 27.7416C24.2844 27.7416 23.7 27.4848 23.3484 27.18C21.9924 26.034 22.8804 23.7648 24.6588 23.7648C25.0332 23.7648 25.6176 24.0228 25.9692 24.3264ZM96.7908 24.4908C97.5864 25.4268 97.5624 26.2212 96.72 27.0636C95.8308 27.9288 94.8024 27.9756 94.0068 27.1572C92.6976 25.8708 93.5628 23.766 95.4108 23.766C95.9952 23.7648 96.3468 23.952 96.7908 24.4908ZM26.5776 39.366C33.804 57.0252 43.3704 80.46 43.3704 80.5308C43.3704 80.5776 34.95 80.6004 24.636 80.6004C14.1108 80.6004 5.94841 80.5068 5.99521 80.3904C7.11721 77.4204 24.5892 34.992 24.6588 34.992C24.7296 34.992 25.5948 36.9564 26.5776 39.366ZM104.861 58.0068C109.913 70.3332 113.982 80.46 113.935 80.5068C113.888 80.5536 105.468 80.5764 95.2476 80.5536L76.6296 80.484L85.6104 58.4988C95.832 33.4728 95.2704 34.7592 95.5272 35.2272C95.622 35.4132 99.8316 45.6576 104.861 58.0068ZM44.1192 85.278C43.8852 88.0848 42.108 92.1312 40.0032 94.7976C38.2488 96.9732 35.8164 98.9136 33.1968 100.153C30.3204 101.533 28.776 101.908 25.4088 102.048C23.0232 102.164 22.2048 102.095 20.3328 101.674C14.298 100.271 9.38641 96.2472 6.76681 90.564C5.76121 88.4124 5.05921 85.6524 5.22361 84.5064C5.24641 84.4128 14.0184 84.366 24.7296 84.39L44.1888 84.4596L44.1192 85.278ZM114.941 84.5772C114.941 84.7176 114.776 85.6068 114.59 86.5416C113.188 93.324 108.181 98.8908 101.376 101.23C99.2472 101.954 99.0132 101.978 95.5284 102.001C91.482 102.001 89.6112 101.627 86.8044 100.224C83.5764 98.61 80.1852 95.5224 78.4776 92.6688C77.3544 90.798 76.1388 87.4296 75.9516 85.746L75.8112 84.3432H95.388C108.79 84.3432 114.941 84.4128 114.941 84.5772Z" fill="#DEC083"/>
<path d="M11.4444 86.7288C10.0176 87.5004 10.0416 88.6464 11.514 90.9156C14.25 95.1024 18.6012 97.698 23.5356 98.0724C25.2192 98.2128 25.3368 98.1888 25.9212 97.6044C27.1836 96.3408 26.3184 94.4004 24.4944 94.4004C23.0916 94.4004 20.8224 93.7692 19.2324 92.9736C17.502 92.0844 15.186 89.8632 14.274 88.1784C13.4328 86.6352 12.4968 86.1444 11.4444 86.7288Z" fill="#DEC083"/>
<path d="M82.0788 86.7288C80.8392 87.4536 80.7456 88.3188 81.7512 90.2136C84.0204 94.4472 89.0952 97.674 94.0776 98.0724C95.8788 98.2128 95.9724 98.1888 96.5568 97.6044C97.7964 96.3408 97.0248 94.4004 95.2704 94.4004C91.3872 94.3776 87.1548 91.9212 85.1664 88.506C84.0672 86.6352 83.1552 86.0976 82.0788 86.7288Z" fill="#DEC083"/>
</svg>
