<svg width="125" height="352" viewBox="0 0 125 352" fill="none" xmlns="http://www.w3.org/2000/svg">
<path fill-rule="evenodd" clip-rule="evenodd" d="M3.58963 41.2629C1.35142 43.8832 0 47.2838 0 51V337C0 345.284 6.71573 352 15 352H110C118.284 352 125 345.284 125 337V51C125 48.1024 124.178 45.3966 122.755 43.103C121.985 39.7676 120.862 36.4966 119.395 33.3351C116.354 26.7835 111.898 20.8306 106.28 15.8162C100.662 10.8019 93.9928 6.82426 86.6526 4.1105C79.3125 1.39675 71.4454 0 63.5005 0C55.5555 0 47.6884 1.39675 40.3483 4.11051C33.0081 6.82426 26.3387 10.8019 20.7208 15.8162C15.1029 20.8306 8.94529 26.7835 5.90491 33.3351C4.70858 35.913 4.0041 38.5637 3.58963 41.2629Z" fill="black" fill-opacity="0.3"/>
</svg>
