<svg width="120" height="120" viewBox="0 0 120 120" fill="none" xmlns="http://www.w3.org/2000/svg">
<path d="M40.671 9.28514C40.0962 9.42314 39.1518 9.83714 38.577 10.1827C37.9326 10.5511 30.567 17.8015 19.8642 28.5727C0.0234399 48.5503 0.990641 47.3995 1.01344 50.7379C1.01344 53.0623 1.56544 54.2587 3.59104 56.4235C5.63944 58.5871 7.34224 59.4151 9.73624 59.4151C11.2554 59.4151 11.6922 59.3227 12.9126 58.7011L14.3394 57.9871L14.8458 58.6087C15.1218 58.9771 17.0778 61.5319 19.1502 64.3171C21.2442 67.1023 23.385 69.9103 23.8914 70.5775L24.8346 71.7511L23.3394 73.2931C21.705 74.9731 20.4618 76.6999 19.6794 78.4255C19.2654 79.3003 19.173 79.9219 19.173 81.6943C19.173 83.6971 19.2186 83.9731 19.8402 85.0315C20.6682 86.4355 42.5802 108.531 44.145 109.544C45.8946 110.649 47.0454 110.994 49.3242 110.994C52.4778 111.016 55.7682 109.705 58.9446 107.127L60.4866 105.861L62.0514 106.989C65.3202 109.336 68.1738 110.349 71.2806 110.188C74.8254 110.028 77.0346 108.416 78.231 105.171C78.6918 103.882 78.783 103.79 79.8426 103.444C82.9494 102.409 85.7118 99.6463 86.817 96.4699C87.0702 95.7559 87.2538 95.6407 88.7502 95.1583C92.3178 94.0303 94.551 91.7983 95.4486 88.4611C95.7018 87.5179 95.7018 87.5179 97.0362 87.3799C101.409 86.9887 104.171 84.1111 104.402 79.7611C104.517 77.4139 104.149 75.9631 102.837 73.7995L101.87 72.2107L103.113 70.9219C105.899 67.9771 107.579 64.5247 108.016 60.8419L108.177 59.4151H109.88C112.251 59.4151 113.954 58.5859 116.002 56.4235C118.028 54.2827 118.58 53.0863 118.58 50.7379C118.625 47.4463 119.57 48.5743 99.4531 28.3435C79.2919 8.06474 80.4894 9.10034 77.0598 9.07754C74.6886 9.07754 73.3314 9.76754 71.0298 12.1159C68.8434 14.3947 68.2218 15.8443 68.3598 18.2839C68.4978 20.2639 69.0966 21.5287 70.6842 23.1631C71.421 23.9227 71.7894 24.4519 71.6514 24.5899C71.5134 24.7051 68.9814 26.4307 66.0126 28.3879L60.6042 31.9783L60.0282 31.3339C59.7054 30.9655 58.6242 29.7223 57.6342 28.5487C56.6214 27.3979 54.6186 25.3039 53.169 23.8999L50.5446 21.3451L50.9358 19.9867C51.8562 16.9951 50.9586 14.4163 48.0822 11.6551C46.5174 10.1587 46.0338 9.83714 44.7222 9.44594C42.9726 8.89394 42.1902 8.87114 40.671 9.28514ZM43.8474 12.8983C44.607 13.1743 46.8162 15.2683 47.277 16.1431C47.6682 16.9027 47.691 18.6979 47.3226 19.3879C46.9086 20.1703 12.4302 54.8107 11.4858 55.3855C10.4958 56.0071 9.20704 56.0755 8.12584 55.5463C7.20544 55.1095 5.11024 52.9687 4.78864 52.1167C4.46584 51.2419 4.51264 49.7695 4.88104 49.0555C5.27224 48.3655 40.3266 13.2883 41.0394 12.8971C41.637 12.5767 43.0182 12.5767 43.8474 12.8983ZM78.6246 12.9679C79.5918 13.4971 114.53 48.5743 114.807 49.3111C115.106 50.1403 115.106 51.3367 114.807 52.1191C114.484 52.9711 112.39 55.1107 111.47 55.5487C110.387 56.0779 109.099 56.0095 108.086 55.3879C107.188 54.8587 72.7794 20.3107 72.2958 19.4599C71.9046 18.7927 71.9274 16.9051 72.3186 16.1455C72.7554 15.3175 74.9658 13.1767 75.6786 12.9007C76.5306 12.5767 77.9118 12.5995 78.6246 12.9679ZM51.5574 27.4447C54.5958 30.4603 57.6798 33.9583 57.4722 34.1419C57.4266 34.1647 56.091 35.1091 54.5034 36.2371C44.6526 43.1875 41.1306 46.5019 38.9898 50.8987C37.7694 53.3839 37.3326 55.3639 37.6782 56.9983C38.3922 60.6343 41.3154 62.1079 47.2302 61.8319C53.3982 61.5559 58.4394 59.1619 60.603 55.4791C60.9942 54.8347 61.3854 54.3055 61.4778 54.3055C61.593 54.3055 62.5362 54.6043 63.5958 54.9727C68.8434 56.8375 73.2402 56.8375 76.185 55.0183L77.313 54.3043L86.1054 62.5207C90.939 67.0315 95.9562 71.7271 97.245 72.9931C100.076 75.7327 100.767 76.9291 100.767 79.0927C100.767 80.7955 100.399 81.7855 99.4782 82.6603C98.5806 83.4883 97.7754 83.7655 96.2094 83.7655H94.8978L84.5406 73.4083L74.1834 63.0511L72.9174 64.3171L71.6514 65.5831L81.8478 75.7795C89.835 83.7667 92.0214 86.0683 92.0214 86.5279C92.0214 88.8751 90.249 90.9931 87.6714 91.7527L86.4282 92.0983L76.1166 81.7867L65.7822 71.4523L64.539 72.6955L63.273 73.9387L73.3998 84.1807C80.235 91.1083 83.5038 94.5847 83.5038 94.9063C83.5038 96.4255 80.9262 99.1867 78.7626 100.016L77.703 100.407L67.4838 90.1879L57.2646 79.9687L56.1138 81.1195C55.4922 81.7411 54.963 82.3627 54.963 82.5007C54.963 82.6159 59.4978 87.2647 65.067 92.8351L75.1482 102.916L74.895 103.744C74.757 104.205 74.2278 105.01 73.7214 105.54C72.6162 106.69 71.5578 106.944 69.555 106.575C66.7014 106.046 64.3302 104.481 55.5378 97.4611C41.6142 86.2975 32.385 76.4011 19.335 58.5859L17.0106 55.3867L32.4546 39.7819C40.9698 31.1731 47.9898 24.1531 48.105 24.1531C48.1974 24.1531 49.7622 25.6267 51.5574 27.4447ZM89.3502 42.0139C97.4526 50.2087 104.197 57.1135 104.288 57.3895C104.611 58.1719 104.335 61.6711 103.827 63.0751C103.228 64.8475 102.055 66.7579 100.535 68.4151L99.2466 69.7963L87.9918 59.3011L76.737 48.8059L75.8166 50.2327C74.4582 52.2583 73.7226 52.5799 70.3854 52.5799C67.9458 52.5571 67.5318 52.4875 65.2758 51.7279C63.9402 51.2671 61.9842 50.4607 60.9714 49.9315C59.9358 49.4251 58.9926 49.0567 58.9002 49.1035C58.8078 49.1731 58.647 49.7935 58.5774 50.4847C58.0938 55.2259 53.2842 58.2187 46.1946 58.2187C44.9058 58.2187 43.4562 58.1035 42.9498 57.9427C40.4406 57.1831 40.6026 54.6739 43.5018 50.3707C45.3426 47.6083 48.1746 45.1687 56.115 39.4843C59.6358 36.9751 74.2518 27.1471 74.4822 27.1471C74.5278 27.1459 81.2262 33.8431 89.3502 42.0139ZM29.9682 77.9431L32.661 81.0967L29.6682 84.0883L26.6526 87.1039L24.8118 85.2631C23.7534 84.2275 22.8558 83.0995 22.7178 82.6627C22.395 81.6727 22.7874 80.0155 23.7078 78.5659C24.3978 77.4835 26.8146 74.7907 27.1146 74.7907C27.2058 74.7895 28.4946 76.2163 29.9682 77.9431ZM38.001 92.5579L35.055 95.5039L32.1318 92.5807L29.1858 89.6347L32.109 86.7115L35.055 83.7655L37.9782 86.6887L40.9242 89.6347L38.001 92.5579ZM46.6782 94.8139C47.8746 95.8495 48.8874 96.7699 48.9342 96.8623C48.957 96.9319 47.5758 98.4043 45.873 100.107L42.7662 103.214L40.1886 100.614L37.5882 98.0359L40.5798 95.0443C43.503 92.0983 43.5714 92.0755 44.0322 92.4895C44.2842 92.7199 45.4818 93.7555 46.6782 94.8139ZM52.5474 99.6475C52.6158 99.7627 53.7678 100.706 55.1022 101.742L57.5418 103.629L56.805 104.228C53.283 107.059 49.371 108.141 46.9074 106.921C44.9274 105.955 44.8362 106.207 48.4038 102.64C51.3966 99.6475 52.179 99.0715 52.5474 99.6475Z" fill="#DEC083"/>
</svg>
