<svg width="120" height="120" viewBox="0 0 120 120" fill="none" xmlns="http://www.w3.org/2000/svg">
<path d="M1.2 60V118.792H42.9228H84.6456V86.5512V54.3108H86.5416H88.4376V86.5512V118.792H94.128H99.8172V86.5512V54.3108H102.994C106.336 54.3108 107.285 54.1212 108.541 53.196L109.3 52.6272L110.082 53.196C112.358 54.9024 114.682 54.642 116.886 52.4136C117.763 51.5604 118.308 50.778 118.498 50.1384C118.901 48.7872 118.901 37.0764 118.498 35.7252C118.308 35.0856 117.763 34.3032 116.886 33.45C114.682 31.2216 112.358 30.9612 110.082 32.6676L109.3 33.2364L108.541 32.6676C107.071 31.5768 106.716 31.5528 95.4084 31.5528H84.6456V28.2816V25.0332L72.7212 13.1088L60.8208 1.2084H30.9984H1.2V60ZM58.0944 16.3812V27.7596H69.4728H80.8512V29.8224L80.8272 31.908L79.8792 32.5716L78.9312 33.2112L78.1728 32.6664C75.8976 30.96 73.5732 31.2204 71.3688 33.4488C70.4916 34.302 69.9468 35.0844 69.7572 35.724C69.354 37.0752 69.354 48.786 69.7572 50.1372C69.9468 50.7768 70.4916 51.5592 71.3688 52.4124C73.5732 54.6408 75.8964 54.9012 78.1728 53.1948L78.9312 52.65L79.8792 53.2896L80.8272 53.9532L80.8512 84.4632V114.997H42.9228H4.9932V60V5.0016H31.5444H58.0956V16.3812H58.0944ZM70.0656 15.9072L78.126 23.9676H69.9948H61.8876V15.9072C61.8876 11.4744 61.9116 7.84679 61.9584 7.84679C61.9824 7.84679 65.6328 11.4732 70.0656 15.9072ZM76.5852 35.82C77.0352 36.27 77.0592 36.6024 77.0592 42.9324C77.0592 49.2624 77.0352 49.5936 76.5852 50.0448C76.2768 50.3532 75.8028 50.5188 75.1632 50.5188C74.5236 50.5188 74.0484 50.3532 73.7412 50.0448C73.2912 49.5948 73.2672 49.2624 73.2672 42.9324C73.2672 36.6024 73.2912 36.2712 73.7412 35.82C74.0496 35.5116 74.5236 35.346 75.1632 35.346C75.8028 35.346 76.2768 35.5116 76.5852 35.82ZM106.93 35.82C107.38 36.27 107.404 36.6024 107.404 42.9324C107.404 49.2624 107.38 49.5936 106.93 50.0448C106.48 50.496 106.147 50.5188 94.128 50.5188C82.1088 50.5188 81.7776 50.4948 81.3264 50.0448C80.8752 49.5948 80.8524 49.2624 80.8524 42.9324C80.8524 36.6024 80.8764 36.2712 81.3264 35.82C81.7764 35.37 82.1088 35.346 94.128 35.346C106.147 35.346 106.478 35.37 106.93 35.82ZM114.515 35.82C114.965 36.27 114.989 36.6024 114.989 42.9324C114.989 49.2624 114.965 49.5936 114.515 50.0448C114.206 50.3532 113.732 50.5188 113.093 50.5188C112.453 50.5188 111.978 50.3532 111.671 50.0448C111.221 49.5948 111.197 49.2624 111.197 42.9324C111.197 36.6024 111.221 36.2712 111.671 35.82C111.979 35.5116 112.453 35.346 113.093 35.346C113.732 35.346 114.206 35.5116 114.515 35.82ZM96.024 84.654V114.998H94.128H92.232V84.654V54.3108H94.128H96.024V84.654Z" fill="#DEC083"/>
<path d="M31.188 9.03241C28.5804 9.55441 26.1384 10.8816 24.1944 12.8256C20.2116 16.8084 19.1208 22.4268 21.4212 27.3816L22.1796 28.9932L18.8136 42.4344C16.9404 49.8072 15.4476 55.9704 15.4944 56.1372C15.5184 56.3028 17.0592 55.4256 18.9792 54.1692C20.8752 52.9128 22.6056 51.7992 22.8192 51.6804C23.1744 51.4908 23.5776 52.1544 25.9488 56.8488L28.6272 62.2536L28.9116 60.594C29.0772 59.6688 30.0732 53.6484 31.14 47.1996C32.6568 38.1444 33.1788 35.4648 33.4392 35.4648C33.6996 35.4648 34.2216 38.1432 35.7384 47.1996C36.8064 53.6472 37.8024 59.6676 37.968 60.5928L38.2524 62.2524L40.9548 56.8476C42.828 53.0784 43.728 51.4896 43.9416 51.6324C44.0844 51.7272 45.8148 52.8408 47.7588 54.1212C49.7028 55.4016 51.3384 56.3964 51.3864 56.3496C51.4332 56.3016 49.9404 50.1144 48.0672 42.624L44.6772 28.992L45.1272 28.0908C47.1192 24.2268 47.166 20.3628 45.27 16.4508C42.7332 11.166 36.6408 7.94161 31.188 9.03241ZM36.57 13.086C39.2964 13.9632 41.382 15.954 42.354 18.6096C42.9708 20.2932 42.9708 23.8488 42.354 25.5324C41.43 28.0452 39.414 30.06 36.9012 30.9852C36.024 31.3176 35.076 31.4352 33.4404 31.4352C30.8568 31.4352 29.4108 31.008 27.6564 29.7288C22.7256 26.1492 22.7256 18.018 27.7032 14.3676C30.0264 12.6348 33.654 12.114 36.57 13.086ZM28.0824 34.0656C29.3388 34.6344 29.4576 34.7532 29.3388 35.322C29.268 35.6544 28.6992 39.0672 28.0824 42.8604C27.4428 46.6776 26.8728 49.806 26.802 49.806C26.7312 49.806 26.2332 48.9528 25.7352 47.91C25.2372 46.8672 24.7164 46.014 24.5976 46.014C24.5028 46.014 23.7684 46.4412 22.986 46.986C22.2036 47.508 21.492 47.91 21.4452 47.8392C21.3984 47.7912 22.2036 44.2596 23.2704 40.0164L25.2144 32.2884L25.9488 32.8572C26.376 33.1644 27.324 33.7104 28.0824 34.0656ZM45.4116 47.862C45.3636 47.91 44.6772 47.5068 43.8948 46.9848C43.1124 46.44 42.378 46.0128 42.2832 46.0128C42.1644 46.0128 41.6436 46.866 41.1456 47.9088C40.6476 48.9516 40.1496 49.8048 40.0788 49.8048C40.008 49.8048 39.4392 46.6752 38.7984 42.8592C38.1816 39.066 37.6128 35.652 37.542 35.3208C37.4472 34.752 37.566 34.6332 38.9412 33.9936C39.7476 33.5904 40.6956 33.0696 41.0268 32.7852L41.6196 32.3112L43.5636 40.0392C44.6292 44.3064 45.4596 47.8152 45.4116 47.862Z" fill="#DEC083"/>
<path d="M10.6824 69.4824V71.3784H42.9228H75.1632V69.4824V67.5864H42.9228H10.6824V69.4824Z" fill="#DEC083"/>
<path d="M10.6824 78.9648V80.8608H42.9228H75.1632V78.9648V77.0688H42.9228H10.6824V78.9648Z" fill="#DEC083"/>
<path d="M10.6824 88.4472V90.3432H42.9228H75.1632V88.4472V86.5512H42.9228H10.6824V88.4472Z" fill="#DEC083"/>
<path d="M10.6824 97.9296V99.8256H42.9228H75.1632V97.9296V96.0336H42.9228H10.6824V97.9296Z" fill="#DEC083"/>
<path d="M10.6824 107.412V109.308H42.9228H75.1632V107.412V105.516H42.9228H10.6824V107.412Z" fill="#DEC083"/>
</svg>
